<?xml version="1.0" encoding="UTF-8" standalone="no"?>
<svg
   shape-rendering="geometricPrecision"
   text-rendering="geometricPrecision"
   image-rendering="optimizeQuality"
   fill-rule="evenodd"
   clip-rule="evenodd"
   viewBox="0 0 484.50767 409.73225"
   version="1.1"
   id="svg4"
   sodipodi:docname="mountain-hut.svg"
   width="30.26"
   height="28.616018"
   inkscape:version="1.2.2 (b0a8486541, 2022-12-01)"
   xmlns:inkscape="http://www.inkscape.org/namespaces/inkscape"
   xmlns:sodipodi="http://sodipodi.sourceforge.net/DTD/sodipodi-0.dtd"
   xmlns="http://www.w3.org/2000/svg"
   xmlns:svg="http://www.w3.org/2000/svg">
  <defs
     id="defs8" />
  <sodipodi:namedview
     id="namedview6"
     pagecolor="#ffffff"
     bordercolor="#000000"
     borderopacity="0.25"
     inkscape:showpageshadow="2"
     inkscape:pageopacity="0.0"
     inkscape:pagecheckerboard="0"
     inkscape:deskcolor="#d1d1d1"
     showgrid="false"
     inkscape:zoom="5.6225471"
     inkscape:cx="10.67132"
     inkscape:cy="2.934613"
     inkscape:window-width="960"
     inkscape:window-height="1128"
     inkscape:window-x="960"
     inkscape:window-y="0"
     inkscape:window-maximized="0"
     inkscape:current-layer="svg4" />
  <rect
     style="fill:#136b00;fill-opacity:1;stroke:#000000;stroke-width:0.570714"
     id="rect343"
     width="483.93695"
     height="457.61435"
     x="0.285357"
     y="-23.941053" />
  <path
     fill="#ffffff"
     d="M 92.45975,261.59796 234.34072,121.3538 c 7.49265,-7.40314 8.44289,-7.71056 16.21304,-0.008 l 141.48574,140.25251 0.008,140.55157 H 286.87334 v -94.91992 c 0,-6.41439 -5.32306,-11.66555 -11.815,-11.66555 h -65.60902 c -6.49195,0 -11.81501,5.25116 -11.81501,11.66555 v 94.91967 H 92.45975 Z M 237.81374,10.622486 26.976874,206.21983 78.97971,233.2068 227.90764,84.836648 c 12.7232,-12.687541 12.86616,-12.961731 25.53891,-0.564996 L 405.52795,233.2068 457.53079,206.21983 246.38277,10.331678 c -3.79257,-3.5146209 -4.32236,-3.9134419 -8.56903,0.290808 z"
     id="path2"
     style="stroke-width:0.835887" />
</svg>
